<?xml version="1.0" standalone="no"?>
<!DOCTYPE svg PUBLIC "-//W3C//DTD SVG 20010904//EN"
 "http://www.w3.org/TR/2001/REC-SVG-20010904/DTD/svg10.dtd">
<svg version="1.0" xmlns="http://www.w3.org/2000/svg"
 width="198.000000pt" height="198.000000pt" viewBox="0 0 198.000000 198.000000"
 preserveAspectRatio="xMidYMid meet">

<g transform="translate(0.000000,198.000000) scale(0.100000,-0.100000)"
fill="#000000" stroke="none">
<path d="M897 1462 c-22 -25 -21 -75 1 -95 19 -17 68 -22 88 -9 14 9 34 47 34
64 0 49 -90 77 -123 40z"/>
<path d="M1122 1397 c-23 -13 -44 -40 -55 -69 -5 -13 -1 -18 13 -18 11 0 20 6
20 14 0 28 52 58 88 52 46 -7 66 -24 50 -43 -9 -11 -9 -16 3 -23 8 -6 18 -5
23 0 6 6 22 10 37 10 30 0 59 -31 59 -62 0 -10 7 -18 15 -18 8 0 15 7 15 15 0
38 65 -5 76 -51 8 -32 -22 -76 -57 -84 -34 -8 -38 -40 -5 -40 29 0 35 -24 13
-54 -24 -33 -97 -17 -97 20 0 8 -9 14 -19 14 -34 0 -6 -59 36 -77 62 -25 123
13 123 79 0 20 9 52 20 70 11 18 20 47 20 65 0 41 -41 89 -83 99 -17 3 -42 17
-54 30 -20 21 -41 29 -66 25 -5 -1 -24 12 -43 29 -38 33 -90 40 -132 17z"/>
<path d="M1529 1369 c-28 -28 -22 -76 13 -102 68 -51 143 46 82 107 -22 22
-70 20 -95 -5z"/>
<path d="M868 1284 c-15 -8 -30 -25 -34 -39 -3 -13 -14 -31 -25 -41 -26 -23
-25 -83 1 -112 37 -39 54 -23 24 23 -20 31 -12 71 16 78 14 3 20 13 20 31 0
34 37 54 70 36 32 -17 48 3 19 24 -29 20 -55 20 -91 0z"/>
<path d="M1157 1266 c-8 -8 -24 -12 -40 -9 -18 4 -33 -2 -50 -19 -18 -18 -33
-24 -53 -21 -16 2 -34 0 -41 -4 -7 -5 -41 -77 -77 -160 -49 -113 -66 -164 -66
-197 0 -25 -5 -57 -12 -71 -8 -18 -8 -29 -1 -36 18 -18 43 42 43 100 0 37 11
74 44 148 24 54 53 119 64 146 19 43 43 60 56 38 3 -5 -5 -34 -19 -65 -16 -35
-21 -57 -14 -62 15 -9 18 -4 59 88 37 84 45 94 68 79 10 -6 5 -25 -23 -86 -39
-86 -41 -95 -22 -95 7 0 34 46 58 102 29 65 51 104 62 106 27 5 21 -28 -23
-129 -23 -51 -39 -98 -36 -106 9 -23 20 -9 56 76 32 76 54 99 66 67 3 -7 -18
-64 -45 -127 -51 -112 -58 -142 -42 -167 6 -10 19 -6 59 19 30 19 58 29 67 25
14 -5 9 -15 -26 -58 -45 -53 -113 -108 -134 -108 -19 0 -64 -39 -80 -70 -13
-25 -13 -29 0 -34 10 -3 20 5 30 24 10 19 36 40 73 59 58 29 182 148 182 174
0 19 -33 47 -56 47 -10 0 -34 -9 -53 -21 -18 -11 -35 -18 -37 -16 -5 4 50 133
80 192 9 17 16 40 16 52 0 22 -24 53 -40 53 -5 0 -7 7 -4 15 4 8 -1 26 -10 40
-18 28 -56 33 -79 11z"/>
<path d="M431 1110 c-44 -11 -80 -45 -63 -62 9 -9 12 -9 12 0 0 16 76 51 111
52 37 0 55 -23 33 -44 -24 -24 -94 -58 -94 -46 0 6 7 22 16 36 9 13 14 27 11
30 -12 13 -130 -172 -120 -189 3 -6 12 -2 21 9 10 13 16 15 19 7 7 -20 84 -15
121 7 39 24 41 58 3 76 l-24 12 31 16 c37 19 56 49 47 75 -9 29 -55 37 -124
21z m66 -147 c8 -21 -30 -53 -64 -53 -36 0 -53 20 -40 47 8 19 18 23 54 23 31
0 45 -5 50 -17z"/>
<path d="M637 1063 c-10 -9 -9 -23 2 -23 5 0 11 7 15 15 5 15 -5 20 -17 8z"/>
<path d="M1528 1013 c-9 -10 -20 -31 -24 -48 -10 -44 -16 -51 -25 -27 -5 12
-15 22 -24 22 -18 0 -18 1 -4 -37 9 -26 7 -36 -16 -69 -26 -38 -29 -64 -10
-71 6 -2 17 13 24 33 7 20 25 43 41 52 21 12 30 27 34 55 8 50 23 77 41 77 25
0 20 -151 -7 -225 -23 -65 -20 -135 7 -135 9 0 13 14 12 53 0 28 7 72 16 96
13 33 17 67 15 140 l-3 96 -31 3 c-19 2 -36 -3 -46 -15z"/>
<path d="M584 993 c-3 -10 -13 -32 -22 -49 -8 -17 -12 -39 -9 -48 8 -20 41
-21 57 -1 12 14 15 14 31 -1 15 -14 21 -14 45 -2 33 15 76 75 72 97 -2 9 -15
17 -29 19 -25 3 -35 -5 -103 -77 -27 -29 -56 -41 -56 -23 0 4 11 25 25 47 13
22 25 43 25 48 0 15 -31 6 -36 -10z m156 -13 c0 -16 -61 -80 -76 -80 -25 0
-15 31 21 67 31 31 55 37 55 13z"/>
<path d="M457 816 c-101 -37 -110 -105 -17 -121 54 -9 69 -29 36 -50 -33 -22
-102 -31 -120 -16 -11 9 -16 9 -21 1 -13 -21 15 -34 66 -32 57 2 103 23 119
52 14 25 -14 55 -61 65 -50 11 -63 24 -44 45 26 29 95 56 104 41 10 -15 64 -4
58 13 -5 16 -76 18 -120 2z"/>
<path d="M905 713 c-35 -54 -80 -102 -97 -103 -14 0 -9 30 12 69 l19 39 -39
-2 c-28 -2 -48 -10 -69 -30 -62 -60 -34 -124 30 -69 14 12 17 11 22 -7 4 -17
11 -20 26 -15 27 8 26 2 -4 -43 -26 -38 -31 -52 -17 -52 4 0 23 25 41 55 22
36 37 53 44 46 19 -19 77 21 104 73 21 41 3 56 -39 31 l-32 -18 23 37 c13 20
21 39 18 42 -3 3 -22 -21 -42 -53z m-143 -65 c-26 -26 -42 -36 -47 -29 -4 7
11 30 36 54 29 29 44 38 47 28 2 -7 -14 -31 -36 -53z m193 22 c-19 -37 -62
-67 -76 -53 -7 7 4 22 31 46 49 45 66 47 45 7z"/>
<path d="M591 689 c-41 -41 -44 -89 -5 -89 34 0 94 62 94 96 0 37 -49 33 -89
-7z m67 3 c5 -16 -63 -86 -76 -78 -14 8 -2 38 31 74 21 23 38 25 45 4z"/>
<path d="M1220 692 c0 -4 15 -23 34 -41 47 -45 70 -31 25 15 -31 32 -59 44
-59 26z"/>
</g>
</svg>
