<?xml version="1.0" standalone="no"?>
<!DOCTYPE svg PUBLIC "-//W3C//DTD SVG 20010904//EN"
 "http://www.w3.org/TR/2001/REC-SVG-20010904/DTD/svg10.dtd">
<svg version="1.0" xmlns="http://www.w3.org/2000/svg"
 width="198.000000pt" height="198.000000pt" viewBox="0 0 198.000000 198.000000"
 preserveAspectRatio="xMidYMid meet">
<metadata>
Created by potrace 1.10, written by Peter Selinger 2001-2011
</metadata>
<g transform="translate(0.000000,198.000000) scale(0.100000,-0.100000)"
fill="#3d8817" stroke="none">
<path d="M905 1468 c-18 -16 -27 -34 -27 -53 0 -40 45 -79 81 -70 33 7 61 40
61 70 0 30 -28 63 -61 70 -19 5 -34 0 -54 -17z m69 -27 c37 -41 -13 -86 -56
-51 -21 17 -21 18 -5 44 21 31 38 33 61 7z"/>
<path d="M1118 1394 c-31 -16 -65 -73 -51 -83 5 -3 12 -14 16 -23 8 -22 34
-24 34 -3 0 8 -6 15 -13 15 -22 0 4 56 32 69 37 16 69 14 95 -9 20 -16 22 -21
9 -29 -24 -16 -1 -26 31 -14 44 17 77 0 85 -44 6 -33 34 -48 34 -18 0 23 28
18 55 -10 15 -14 25 -36 25 -53 0 -39 -37 -78 -71 -74 -4 1 -9 -8 -12 -19 -5
-18 -2 -20 19 -15 21 6 24 3 24 -24 0 -41 -40 -68 -76 -51 -14 6 -28 20 -31
31 -3 11 -12 20 -19 20 -8 0 -14 5 -14 12 0 6 -3 9 -6 5 -14 -13 19 -78 46
-92 42 -22 66 -19 101 13 25 22 31 36 31 66 0 21 9 53 19 70 30 49 25 92 -15
132 -21 21 -44 34 -60 34 -15 0 -30 8 -35 19 -11 20 -67 44 -82 36 -4 -3 -11
1 -16 8 -27 44 -103 60 -155 31z"/>
<path d="M1053 1385 c0 -8 4 -12 9 -9 5 3 6 10 3 15 -9 13 -12 11 -12 -6z"/>
<path d="M1526 1368 c-34 -49 -4 -118 51 -118 31 0 73 43 73 75 0 59 -91 90
-124 43z m76 -15 c25 -23 22 -51 -7 -65 -19 -8 -28 -8 -40 2 -20 17 -19 57 3
69 23 14 23 14 44 -6z"/>
<path d="M872 1290 c-13 -6 -29 -25 -37 -43 -8 -19 -21 -39 -29 -47 -18 -14
-21 -72 -6 -100 11 -20 77 -46 88 -35 7 8 -13 19 -22 13 -3 -2 -16 12 -30 30
-28 39 -24 69 11 85 14 6 22 18 21 27 -4 24 20 50 46 50 42 -1 77 -49 50 -70
-8 -7 -14 -16 -14 -21 0 -4 -13 -36 -29 -71 -85 -184 -91 -202 -91 -250 0 -27
-7 -62 -15 -77 -14 -29 -11 -41 10 -41 16 0 39 69 36 115 -1 30 14 75 63 185
60 133 84 167 100 142 3 -6 -6 -36 -20 -67 -20 -46 -22 -60 -12 -66 13 -8 18
0 72 124 25 58 31 63 54 48 10 -6 5 -27 -26 -94 -34 -72 -38 -87 -25 -92 9 -3
17 -4 18 -3 1 2 21 50 46 107 24 57 50 106 58 109 32 12 26 -25 -19 -127 -32
-70 -44 -108 -37 -113 17 -10 20 -6 57 81 32 76 50 95 65 70 4 -6 -16 -64 -45
-129 -43 -98 -51 -125 -46 -154 l7 -34 50 34 c50 33 70 40 82 28 14 -14 -99
-127 -155 -155 -31 -16 -68 -44 -82 -62 -30 -39 -31 -43 -11 -51 10 -3 20 5
30 24 10 19 35 39 70 57 34 16 83 55 125 97 60 61 67 73 58 90 -22 42 -63 48
-110 15 -16 -12 -31 -19 -33 -17 -3 2 18 55 45 117 28 62 50 122 50 132 0 10
-11 26 -25 35 -17 11 -24 22 -20 35 7 22 -27 59 -54 59 -10 0 -24 -7 -31 -15
-9 -11 -22 -14 -41 -10 -22 5 -34 1 -53 -18 -20 -20 -31 -23 -56 -18 -17 3
-31 9 -30 14 2 34 -3 45 -25 55 -30 14 -51 14 -83 2z"/>
<path d="M1260 1285 c-7 -8 -11 -15 -9 -16 31 -6 37 -5 35 7 -3 22 -12 25 -26
9z"/>
<path d="M720 1246 c0 -2 8 -10 18 -17 15 -13 16 -12 3 4 -13 16 -21 21 -21
13z"/>
<path d="M920 1246 c0 -2 8 -10 18 -17 15 -13 16 -12 3 4 -13 16 -21 21 -21
13z"/>
<path d="M1405 1241 c-6 -11 13 -26 22 -17 4 3 1 6 -6 6 -7 0 -9 5 -6 10 3 6
4 10 1 10 -3 0 -7 -4 -11 -9z"/>
<path d="M544 1172 c3 -5 0 -13 -6 -15 -9 -4 -10 -6 -1 -6 17 -1 25 16 12 25
-7 4 -9 3 -5 -4z"/>
<path d="M735 1169 c-4 -6 -5 -12 -2 -15 2 -3 7 2 10 11 7 17 1 20 -8 4z"/>
<path d="M1373 1141 c0 -11 5 -18 9 -15 4 3 5 11 1 19 -7 21 -12 19 -10 -4z"/>
<path d="M398 1099 c-39 -20 -53 -59 -23 -59 8 0 15 4 15 10 0 16 46 41 77 42
80 2 85 -19 16 -62 -61 -39 -69 -38 -39 7 26 38 27 49 3 40 -16 -6 -117 -167
-117 -186 0 -6 7 -11 15 -11 8 0 15 7 15 15 0 19 7 19 27 -1 20 -20 76 -13
113 14 33 25 39 71 11 79 -28 7 -26 14 12 38 38 24 48 63 21 82 -26 19 -103
15 -146 -8z m91 -128 c8 -5 11 -16 8 -25 -12 -31 -96 -48 -90 -18 2 7 -4 9
-14 5 -17 -6 -14 4 10 35 11 14 65 16 86 3z"/>
<path d="M631 1061 c-10 -17 -9 -21 3 -21 20 0 31 19 18 32 -7 7 -14 3 -21
-11z"/>
<path d="M1543 1028 c-22 -10 -35 -36 -49 -93 l-7 -30 -9 32 c-6 23 -13 31
-23 27 -18 -7 -17 -4 -4 -41 9 -26 7 -36 -15 -68 -15 -21 -26 -46 -26 -56 0
-32 25 -21 39 17 7 20 25 43 41 52 21 12 30 27 34 55 8 50 23 77 41 77 24 0
20 -146 -5 -212 -29 -76 -25 -163 7 -151 10 4 13 15 8 42 -4 24 1 55 15 93 15
42 20 83 20 152 0 84 -2 97 -19 106 -23 12 -20 12 -48 -2z"/>
<path d="M585 1000 c-10 -11 -15 -20 -11 -20 3 0 -3 -18 -14 -40 -11 -23 -18
-45 -15 -50 8 -14 62 -13 71 1 4 8 9 8 17 0 29 -29 92 11 127 78 11 21 10 26
-6 38 -10 7 -24 13 -31 13 -15 0 -83 -58 -83 -72 0 -13 -41 -47 -57 -48 -18 0
-17 2 16 59 27 45 30 61 11 61 -4 0 -15 -9 -25 -20z m145 -24 c0 -20 -57 -79
-70 -71 -13 8 13 60 37 74 25 14 33 13 33 -3z"/>
<path d="M790 959 c0 -5 5 -7 10 -4 6 3 10 8 10 11 0 2 -4 4 -10 4 -5 0 -10
-5 -10 -11z"/>
<path d="M926 952 c-3 -5 1 -9 9 -9 8 0 12 4 9 9 -3 4 -7 8 -9 8 -2 0 -6 -4
-9 -8z"/>
<path d="M785 880 c-4 -6 -11 -7 -17 -4 -7 4 -8 2 -4 -5 6 -9 11 -9 22 0 14
11 18 19 10 19 -3 0 -8 -5 -11 -10z"/>
<path d="M320 851 c0 -6 4 -13 10 -16 6 -3 7 1 4 9 -7 18 -14 21 -14 7z"/>
<path d="M606 842 c-3 -5 1 -9 9 -9 8 0 12 4 9 9 -3 4 -7 8 -9 8 -2 0 -6 -4
-9 -8z"/>
<path d="M500 830 c-64 -11 -130 -58 -130 -91 0 -20 37 -43 87 -54 46 -9 49
-21 12 -41 -35 -18 -94 -23 -121 -10 -21 10 -25 -13 -6 -32 36 -36 188 16 188
63 0 18 -31 41 -75 55 -22 7 -44 15 -48 17 -14 8 12 30 60 53 36 17 48 19 54
9 6 -10 15 -11 36 -3 54 19 10 46 -57 34z"/>
<path d="M1131 817 c-8 -10 -7 -14 2 -14 8 0 14 6 14 14 0 7 -1 13 -2 13 -2 0
-8 -6 -14 -13z"/>
<path d="M345 809 c-4 -6 -5 -12 -2 -15 2 -3 7 2 10 11 7 17 1 20 -8 4z"/>
<path d="M323 759 c-2 -23 3 -25 10 -4 4 8 3 16 -1 19 -4 3 -9 -4 -9 -15z"/>
<path d="M895 705 c-21 -35 -41 -62 -44 -60 -2 3 -10 -4 -18 -15 -34 -48 -45
-5 -13 48 11 18 20 34 20 36 0 1 -16 3 -36 4 -22 1 -48 -6 -64 -18 -31 -22
-55 -72 -46 -95 8 -21 40 -19 62 6 l18 20 8 -21 c6 -16 13 -20 29 -15 23 8 22
4 -13 -47 -18 -26 -24 -58 -10 -58 4 0 23 27 41 60 21 35 38 55 42 49 13 -21
59 1 89 43 49 67 38 102 -20 66 l-34 -20 17 24 c34 46 39 58 25 58 -7 -1 -31
-30 -53 -65z m-95 -10 c0 -9 -62 -75 -71 -75 -17 0 -9 22 20 51 26 26 51 38
51 24z m139 -42 c-31 -32 -59 -48 -59 -32 0 17 74 82 78 69 2 -6 -6 -23 -19
-37z"/>
<path d="M602 705 c-39 -33 -59 -80 -42 -100 7 -8 18 -15 25 -15 20 0 74 49
92 83 14 28 14 31 -3 44 -25 19 -38 16 -72 -12z m41 -37 c-10 -17 -28 -37 -40
-46 -21 -13 -23 -13 -23 6 0 24 57 85 71 76 6 -3 2 -18 -8 -36z"/>
<path d="M325 711 c-3 -5 -2 -12 3 -15 5 -3 9 1 9 9 0 17 -3 19 -12 6z"/>
<path d="M1231 700 c-7 -3 -9 -13 -6 -22 9 -22 66 -61 75 -52 12 12 -55 83
-69 74z"/>
<path d="M1320 686 c0 -2 8 -10 18 -17 15 -13 16 -12 3 4 -13 16 -21 21 -21
13z"/>
<path d="M643 555 c0 -8 4 -12 9 -9 5 3 6 10 3 15 -9 13 -12 11 -12 -6z"/>
<path d="M755 559 c-4 -6 -5 -12 -2 -15 2 -3 7 2 10 11 7 17 1 20 -8 4z"/>
<path d="M910 550 c8 -5 20 -10 25 -10 6 0 3 5 -5 10 -8 5 -19 10 -25 10 -5 0
-3 -5 5 -10z"/>
<path d="M837 477 c-3 -8 1 -14 8 -14 7 0 11 6 8 14 -3 7 -6 13 -8 13 -2 0 -5
-6 -8 -13z"/>
</g>
</svg>
