<svg id="Layer_1" data-name="Layer 1" xmlns="http://www.w3.org/2000/svg" xmlns:xlink="http://www.w3.org/1999/xlink" viewBox="0 0 386.8 298.58" width="406" height="306" class="illustration styles_illustrationTablet__1DWOa"><defs><linearGradient id="linear-gradient" x1="161.58" y1="145.39" x2="166.63" y2="145.39" gradientUnits="userSpaceOnUse"><stop offset="0.01" stop-color="#fff"></stop><stop offset="0.13" stop-color="#fff" stop-opacity="0.69"></stop><stop offset="1" stop-color="#fff" stop-opacity="0"></stop></linearGradient><linearGradient id="linear-gradient-2" x1="172.78" y1="145.93" x2="179.96" y2="145.93" xlink:href="#linear-gradient"></linearGradient><linearGradient id="linear-gradient-3" x1="153.77" y1="166.91" x2="161.11" y2="166.91" xlink:href="#linear-gradient"></linearGradient><linearGradient id="linear-gradient-4" x1="105.13" y1="168.68" x2="108.35" y2="168.68" xlink:href="#linear-gradient"></linearGradient><linearGradient id="linear-gradient-5" x1="118.07" y1="152.37" x2="121.29" y2="152.37" xlink:href="#linear-gradient"></linearGradient><linearGradient id="linear-gradient-6" x1="115.91" y1="146.94" x2="119.13" y2="146.94" xlink:href="#linear-gradient"></linearGradient><linearGradient id="linear-gradient-7" x1="121.64" y1="140.15" x2="123.76" y2="140.15" xlink:href="#linear-gradient"></linearGradient><linearGradient id="linear-gradient-8" x1="116.5" y1="139.09" x2="118.62" y2="139.09" xlink:href="#linear-gradient"></linearGradient><linearGradient id="linear-gradient-9" x1="123.25" y1="158.13" x2="125.37" y2="158.13" xlink:href="#linear-gradient"></linearGradient><linearGradient id="linear-gradient-10" x1="117.56" y1="166.01" x2="119.68" y2="166.01" xlink:href="#linear-gradient"></linearGradient><linearGradient id="linear-gradient-11" x1="2658.66" y1="995.03" x2="2661.87" y2="995.03" gradientTransform="translate(2807.76 1108.82) rotate(179.55)" xlink:href="#linear-gradient"></linearGradient><linearGradient id="linear-gradient-12" x1="2648.55" y1="997.47" x2="2651.77" y2="997.47" gradientTransform="translate(2807.76 1108.82) rotate(179.55)" xlink:href="#linear-gradient"></linearGradient><linearGradient id="linear-gradient-13" x1="2644.41" y1="984.2" x2="2647.63" y2="984.2" gradientTransform="translate(2807.76 1108.82) rotate(179.55)" xlink:href="#linear-gradient"></linearGradient><linearGradient id="linear-gradient-14" x1="2668.79" y1="1001.2" x2="2670.91" y2="1001.2" gradientTransform="translate(2807.76 1108.82) rotate(179.55)" xlink:href="#linear-gradient"></linearGradient><linearGradient id="linear-gradient-15" x1="308.49" y1="164.43" x2="343.62" y2="164.43" xlink:href="#linear-gradient"></linearGradient><linearGradient id="linear-gradient-16" x1="288.73" y1="136.81" x2="290.24" y2="136.81" xlink:href="#linear-gradient"></linearGradient><linearGradient id="linear-gradient-17" x1="275.73" y1="145.7" x2="277.24" y2="145.7" xlink:href="#linear-gradient"></linearGradient><linearGradient id="linear-gradient-18" x1="285.78" y1="138.21" x2="287.29" y2="138.21" xlink:href="#linear-gradient"></linearGradient><linearGradient id="linear-gradient-19" x1="282.47" y1="137.89" x2="283.97" y2="137.89" xlink:href="#linear-gradient"></linearGradient><linearGradient id="linear-gradient-20" x1="274.33" y1="151.4" x2="276.46" y2="151.4" xlink:href="#linear-gradient"></linearGradient><linearGradient id="linear-gradient-21" x1="2992.48" y1="1664.07" x2="2994.6" y2="1664.07" gradientTransform="translate(3270.4 -1527.25) rotate(121.73)" xlink:href="#linear-gradient"></linearGradient></defs><title>5</title><path d="M420.14,225c.89,6.71,3,13.23,3.72,19.95,2.24,20.79-9.56,41.67-27,53.15s-39.7,14.3-60.3,10.78c-16-2.74-31.17-9-46.89-13.09A174.78,174.78,0,0,0,210.26,294c-18.69,3.93-37.24,11.06-56.51,11.4-15.65.29-24.68-6.54-38.47-11.95-31-12.15-58.41-24.7-71.84-58-9.82-24.31-7.51-52.6,4.74-75.61,6.68-12.57,13.3-18.68,24.8-24.79,12.19-6.48,20.47-13.93,25.39-27.42,5.3-14.53,6.15-30.41,11.79-44.81,13-33.3,50.89-52.62,86.61-51s68.75,21,94.24,46.09c5.31,5.23,10.52,10.83,17.24,14,6.12,2.93,13,3.65,19.73,4.56,28.29,3.83,57.81,12.94,75.92,35s21.29,52.86,18.07,81.16c-1.19,10.49-3.16,21.06-1.92,31.54Z" transform="translate(-37.33 -11.75)" fill="#68fc7c" opacity="0.18" style="isolation: isolate;"></path><path d="M233.18,169.12a71.05,71.05,0,0,1-20,49.45c-.38.4-.76.79-1.15,1.17a71.13,71.13,0,0,1-22.4,15h0a69.1,69.1,0,0,1-9.15,3.17,71.43,71.43,0,0,1-18.62,2.46,72.69,72.69,0,0,1-12.69-1.12,68.94,68.94,0,0,1-7.35-1.74,71.1,71.1,0,0,1-23.81-12.22c-1.74-1.36-3.42-2.8-5-4.32a71.27,71.27,0,1,1,120.15-51.87Z" transform="translate(-37.33 -11.75)" fill="#68fc7c"></path><path d="M402.64,169.12a71.18,71.18,0,0,1-20,49.45c-.38.4-.76.79-1.15,1.17a71.2,71.2,0,0,1-22.39,15h0a69.1,69.1,0,0,1-9.15,3.17,71.43,71.43,0,0,1-18.62,2.46,72.69,72.69,0,0,1-12.69-1.12,68.94,68.94,0,0,1-7.35-1.74,71.1,71.1,0,0,1-23.81-12.22c-1.74-1.36-3.42-2.8-5-4.32a71.27,71.27,0,1,1,119.75-59.43A70.08,70.08,0,0,1,402.64,169.12Z" transform="translate(-37.33 -11.75)" fill="#68fc7c"></path><path d="M195.72,128.13a6.39,6.39,0,0,1,2.46-1.12,2.45,2.45,0,0,1,2.41.91c.81,1.25-.14,2.86-1.05,4a89.69,89.69,0,0,1-9.16,10.58A30,30,0,0,0,186,147c-.34-2.17-1.78-4.18-2.11-6.35-.27-1.79,1.38-3.16,2.55-4.5A44.79,44.79,0,0,1,195.72,128.13Z" transform="translate(-37.33 -11.75)" fill="#e26f54"></path><path d="M159.35,196.58a14.6,14.6,0,0,1-.51,3.7c-1.08,4-3.78,7.28-6.07,10.72a77,77,0,0,0-8.08,16.62c-1.13,3.13-1.85,6.59-2.83,9.91a71.1,71.1,0,0,1-23.81-12.22c-1.74-1.36-3.42-2.8-5-4.32a105,105,0,0,0,6.9-10.21c2.38-4.06,4.4-8.32,7-12.25,5.21-7.92,12.75-14.66,15.9-23.46a22.66,22.66,0,0,0,.72-2.34c4.32,3.52,8.71,7.11,11.85,11.71A21.25,21.25,0,0,1,159.35,196.58Z" transform="translate(-37.33 -11.75)" fill="#e26f54"></path><path d="M213.23,218.57c-.38.4-.76.79-1.15,1.17a71.13,71.13,0,0,1-22.4,15h0c-3.59-2.51-5.9-6.58-8-10.47-2.27-4.14-6-8.36-7.14-12.95a12.48,12.48,0,0,0-1.35-3.28c-3.1-5.16-9.42-7.34-13.8-11.48l-.3-.28c-4.29-4.22-6.29-10.25-10-15a50.46,50.46,0,0,0-6.24-6.25c-1.59-1.4-3.18-2.82-4.64-4.36a36.26,36.26,0,0,1-5.8-8.15c-.48-.92-.86-2.23-.05-2.89a2.29,2.29,0,0,1,1.28-.4,20.16,20.16,0,0,1,12.88,3.93l.39.28a35.34,35.34,0,0,1,6.16,5.75c1.26,1.45,2.44,3,3.57,4.53,0-.63,0-1.28,0-1.95h0c-.11-3.2-.54-6.71-.63-9.75a23.61,23.61,0,0,0-1-7.1c-1.05-3-3.14-5.59-5-8.2l-.59-.82c-4.47-6.34-7.35-14.45-5.19-21.91,2-.57,3.41,1.75,4.17,3.62A72.94,72.94,0,0,0,154.85,140a71.45,71.45,0,0,0,9.22,11.3l.46.46a9.34,9.34,0,0,0,.34-5,33.74,33.74,0,0,0-2.15-6.48,96.39,96.39,0,0,1-3.62-10.63c-.46-1.62-.86-3.26-1.23-4.91-.48-2.16-.88-4.49-.05-6.54s3.31-3.58,5.29-2.58a4.37,4.37,0,0,1,1.95,2.38h0a13.89,13.89,0,0,1,.6,1.86c1,3.83,2.11,7.67,3.24,11.48.37,1.22.74,2.44,1.12,3.66,1.12,3.69,2.3,7.35,3.59,11,.68,2,1.39,4,2.14,5.94a34.19,34.19,0,0,0-.89-8c-.93-4.31-2.34-8.56-3.12-12.92a31.56,31.56,0,0,1-.51-3.64c-.07-.63,0-1.42.52-1.77a1.52,1.52,0,0,1,1-.17,5.63,5.63,0,0,1,2.37.74A12.44,12.44,0,0,1,179,130a35.41,35.41,0,0,1,2.23,3.61,40,40,0,0,1,4.11,10.5,1.22,1.22,0,0,1,.17-.15c.82-.54,1.73,0,2.4.87a5.24,5.24,0,0,1,.68,1.12,57.28,57.28,0,0,1,3,8.67c.76,2.82,1.34,5.7,1.84,8.61,2.48,14.51,2.78,29.72,10.47,42.11C206.51,209.53,210.29,214,213.23,218.57Z" transform="translate(-37.33 -11.75)" fill="#f38a6b"></path><path d="M146.5,157.52c-1.31-4.51-6.86-7.19-7.15-11.88a1.11,1.11,0,0,1,.11-.65,1,1,0,0,1,.57-.37c2.34-.84,4.92,0,7.23.95,2.66,1.07,5.38,2.32,7.2,4.54a14.53,14.53,0,0,1,2.64,6.15,32.2,32.2,0,0,1-.91,16.86c.21-.61-2.59-3.3-3-3.77a30.07,30.07,0,0,0-3.84-3.38c-1.17-.86-2.66-1.29-2.82-2.74C146.27,161.3,147.09,159.53,146.5,157.52Z" transform="translate(-37.33 -11.75)" fill="#e26f54"></path><path d="M162.81,122c1.71-3.5,3.81-7.28,7.49-8.57a1.55,1.55,0,0,1,.73-.11,1.33,1.33,0,0,1,.67.36,5,5,0,0,1,1.49,3.76,15.07,15.07,0,0,1-.76,4.08,58.25,58.25,0,0,1-3.11,8.93c-1.29,2.69-3,5.21-3.76,8.09-1.13,4.29,0,9-1.63,13.14,0-.13-5.41-5.37-5.91-6-1.5-1.84-3.86-4.05-3-6.55C157.08,133.31,160.1,127.57,162.81,122Z" transform="translate(-37.33 -11.75)" fill="#e26f54"></path><path d="M174.86,143.85c-.43.68-.88,1.38-1.25,2.06q-1.92-5.43-3.59-11a9,9,0,0,1,1.73-4C172.52,135.29,173.94,139.54,174.86,143.85Z" transform="translate(-37.33 -11.75)" fill="#e26f54"></path><path d="M188.48,121.77q-3.6,5.91-7.24,11.83L176.73,141c-.43.71-1.15,1.75-1.87,2.88-.92-4.31-2.34-8.56-3.11-12.91,1-1.48,2.13-2.91,2.8-4l.54-.88a38.12,38.12,0,0,1,6.87-8.76,7.8,7.8,0,0,1,3.95-2,3.5,3.5,0,0,1,3.71,1.94C190.21,118.74,189.33,120.38,188.48,121.77Z" transform="translate(-37.33 -11.75)" fill="#e26f54"></path><path d="M201.73,148.47a7.19,7.19,0,0,1,2.45-.72,1.23,1.23,0,0,1,.71.14,1.32,1.32,0,0,1,.49,1.1,8.58,8.58,0,0,1-2.3,6,28.19,28.19,0,0,1-5.06,4.23,22,22,0,0,0-4.91,4.37c.23-.3-.4-2.27-.47-2.69-.18-1-.37-1.93-.57-2.9-.32-1.51-1.28-3.1.11-4.13A50,50,0,0,1,201.73,148.47Z" transform="translate(-37.33 -11.75)" fill="#e26f54"></path><path d="M166.08,140.9a6.45,6.45,0,0,0-.08-2.4.49.49,0,0,0-.18-.31.5.5,0,0,0-.43,0,3.57,3.57,0,0,0-2,2.5A17.5,17.5,0,0,0,163,144a6,6,0,0,1-.92,3.18,2.63,2.63,0,0,0-.45.75,1.77,1.77,0,0,0,.34,1.37,10.91,10.91,0,0,0,2.73,3.05,1.13,1.13,0,0,0,.47.25c1.9.39,1.56-4.38,1.15-5.35C165.39,145.09,165.86,143.25,166.08,140.9Z" transform="translate(-37.33 -11.75)" fill="url(#linear-gradient)"></path><path d="M178.91,139.81c.45,0,1,.17,1.05.62a1,1,0,0,1-.17.56c-1.08,2-3.19,3.41-3.63,5.62a20,20,0,0,0-.07,2.9,3.09,3.09,0,0,1-1.16,2.55q-.81-2.46-1.47-5c-.28-1.05-1.19-2.84-.28-3.7a11.41,11.41,0,0,1,1.46-.81,14.92,14.92,0,0,0,1.36-1.14A5.08,5.08,0,0,1,178.91,139.81Z" transform="translate(-37.33 -11.75)" fill="url(#linear-gradient-2)"></path><path d="M160,159.94a4.66,4.66,0,0,0-1.08,3.18,17.86,17.86,0,0,0,.48,3.39c.41,2,.64,4.26-.29,6.12a5.72,5.72,0,0,0-.68,1.49c-.16.85.11,2-.69,2.33a1,1,0,0,1-1.12-.4,2.79,2.79,0,0,1-.45-1.16,7.09,7.09,0,0,0-1.41-3.62c-.51-.52-1.26-1.14-.94-1.79,1,.16,1.92,1.46,2.8.93,2.33-1.4.15-8.25.59-10.55C157.92,156.36,163.39,156.59,160,159.94Z" transform="translate(-37.33 -11.75)" fill="url(#linear-gradient-3)"></path><circle cx="106.74" cy="168.68" r="1.61" fill="url(#linear-gradient-4)"></circle><circle cx="119.68" cy="152.37" r="1.61" fill="url(#linear-gradient-5)"></circle><circle cx="117.52" cy="146.94" r="1.61" fill="url(#linear-gradient-6)"></circle><circle cx="122.7" cy="140.15" r="1.06" fill="url(#linear-gradient-7)"></circle><circle cx="117.56" cy="139.09" r="1.06" fill="url(#linear-gradient-8)"></circle><circle cx="124.31" cy="158.13" r="1.06" fill="url(#linear-gradient-9)"></circle><circle cx="118.62" cy="166.01" r="1.06" fill="url(#linear-gradient-10)"></circle><circle cx="139.8" cy="134.62" r="1.61" fill="url(#linear-gradient-11)"></circle><circle cx="149.88" cy="132.09" r="1.61" fill="url(#linear-gradient-12)"></circle><circle cx="154.12" cy="145.34" r="1.61" fill="url(#linear-gradient-13)"></circle><circle cx="130.16" cy="128.52" r="1.06" fill="url(#linear-gradient-14)"></circle><path d="M107.7,150s12.52,15.27,16.32,32.34" transform="translate(-37.33 -11.75)" fill="none" stroke="#f8feff" stroke-linecap="round" stroke-linejoin="round" stroke-width="1.88"></path><polyline points="69.52 144.38 68.99 136.49 76.94 139.3" fill="none" stroke="#f8feff" stroke-linecap="round" stroke-linejoin="round" stroke-width="1.88"></polyline><path d="M129.4,150.52s-13.31,14.59-18,31.43" transform="translate(-37.33 -11.75)" fill="none" stroke="#f8feff" stroke-linecap="round" stroke-linejoin="round" stroke-width="1.88"></path><polyline points="92.6 144.93 93.54 137.08 85.46 139.47" fill="none" stroke="#f8feff" stroke-linecap="round" stroke-linejoin="round" stroke-width="1.88"></polyline><path d="M341.58,147.71l-.16.12c-3.69,2.75-6.28,1.65-8.41,6.33s-2.86,9.73-4.86,14.41a26.3,26.3,0,0,1-7,9.52l-.76.64a29,29,0,0,1-8.14,4.61A26.39,26.39,0,0,1,300,184.87c-3.59-.42-7.05-1.56-10.62-2.11a33.47,33.47,0,0,0-10.43,0c-5.64.9-11.63,3.18-17,2.37a71.63,71.63,0,0,1-1-27.11,31.44,31.44,0,0,1,6.89-1.63c9.93-1.54,20.09-2.8,29.22-7,3.49-1.61,6.8-3.64,10.44-4.87,11.4-3.84,24.43.65,35.72-3.52C344.67,143.08,343.6,146.16,341.58,147.71Z" transform="translate(-37.33 -11.75)" fill="#e26f54"></path><path d="M331.94,149.53c-.19.37-.34.81-.71,1a1.38,1.38,0,0,1-1,0,33.15,33.15,0,0,0-3.64-1,4,4,0,0,0-3.49,1,3.82,3.82,0,0,1-.86.89c-.89.5-2.24-.31-3,.42-.56.57-.19,1.52-.28,2.32-.25,2.17-3.73,2.52-4.35,4.61-.44,1.46.78,3,.6,4.48-.25,2-2.66,3-3.35,4.84s.37,4.35-1.15,5.59c-.69.56-1.77.69-2.15,1.49s.51,2,1.48,2.41,2.12.62,2.75,1.46c.35.47.48,1.08.83,1.55a3.86,3.86,0,0,0,3,1.07,6.39,6.39,0,0,0,4-.81c1.24-.92,1.67-2.55,2.19-4A20.14,20.14,0,0,1,338.33,164c1.73-.28,3.74-.46,4.75-1.9s.36-3.74-.65-5.37c-.8-1.29-1.89-2.62-2.18-4.16-.24-1.34.7-3-.16-4.12C338.37,146.17,333.11,147.2,331.94,149.53Z" transform="translate(-37.33 -11.75)" fill="url(#linear-gradient-15)"></path><path d="M329.63,197.37a4.7,4.7,0,0,0,1,1,4,4,0,0,0,3.15.13c4.65-1.27,8.6-4.38,11.92-7.88a66,66,0,0,0-10.24-1.76c-2.69-.18-7.19-.42-9.49,1.29S328.48,196,329.63,197.37Z" transform="translate(-37.33 -11.75)" fill="#e26f54"></path><path d="M402.64,169.12a71.24,71.24,0,0,1-2.4,18.35l-20-6.61c-4.84-1.61-10.17-3.21-14.93-1.37-5.08,2-8.11,7.33-13,9.77a18,18,0,0,1-6.92,1.66c-1.69.11-3.41.09-5.1.06l-14.84-.26-3.68-.07c-2.36,0-4.83-.11-6.91-1.23s-3.62-3.64-2.81-5.87l.08-.21h0c.45-1.09,1.37-2.14,1.58-3.2a2,2,0,0,0-.32-1.57c-.2-.3-.45-.56-.67-.84a6.12,6.12,0,0,1,.7-7.89,5,5,0,0,1,1.59-1.07,7.9,7.9,0,0,1-.54-.94,7,7,0,0,1,3.36-9.5,7,7,0,0,1,3.33-.7,2.4,2.4,0,0,1-.8-1.16,4.36,4.36,0,0,1,1.92-4.66c2-1.22,4.42-1.18,6.72-1.4,4.19-.39,8.22-1.74,12.35-2.58,0,0,0,0,0,0,1-.21,2-.39,3-.51a51.71,51.71,0,0,1,12.73.42,178.12,178.12,0,0,1,36,8.61,23.86,23.86,0,0,1,9.05,5.21A70.08,70.08,0,0,1,402.64,169.12Z" transform="translate(-37.33 -11.75)" fill="#f38a6b"></path><path d="M319.75,178.85a26.8,26.8,0,0,1,4.79-.66c-3.4.08-7.7-.73-11,.35-1.65.54-.82,1.71.62,1.63C316,180.07,318,179.23,319.75,178.85Z" transform="translate(-37.33 -11.75)" fill="#e26f54"></path><path d="M319.11,168.53a26.71,26.71,0,0,1,4.78-.67c-3.4.08-7.7-.73-11,.35-1.64.54-.82,1.71.62,1.63C315.34,169.74,317.33,168.9,319.11,168.53Z" transform="translate(-37.33 -11.75)" fill="#e26f54"></path><path d="M324.54,157.23a26.68,26.68,0,0,1,4.79-.66c-3.41.08-7.7-.73-11,.35-1.64.54-.81,1.71.63,1.62C320.77,158.44,322.76,157.61,324.54,157.23Z" transform="translate(-37.33 -11.75)" fill="#e26f54"></path><path d="M350,154.92s4.3,14.78,0,25.25" transform="translate(-37.33 -11.75)" fill="none" stroke="#f8feff" stroke-linecap="round" stroke-linejoin="round" stroke-width="1.88"></path><path d="M347.22,158.68c-.09,0-.08-.14,0-.22a39.93,39.93,0,0,1,2.81-4.93c.07-.1.15-.2.26-.2a.25.25,0,0,1,.15.06,32.78,32.78,0,0,1,4.41,3.07" transform="translate(-37.33 -11.75)" fill="none" stroke="#f8feff" stroke-linecap="round" stroke-linejoin="round" stroke-width="1.88"></path><path d="M347.54,178.5a40.15,40.15,0,0,1,2.34,3.68,4.88,4.88,0,0,1,1.18-.89l3-1.84" transform="translate(-37.33 -11.75)" fill="none" stroke="#f8feff" stroke-linecap="round" stroke-linejoin="round" stroke-width="1.88"></path><path d="M297.52,154.71s-4.3,14.78,0,25.25" transform="translate(-37.33 -11.75)" fill="none" stroke="#f8feff" stroke-linecap="round" stroke-linejoin="round" stroke-width="1.88"></path><path d="M300.32,158.47c.09,0,.08-.14,0-.22a39.93,39.93,0,0,0-2.81-4.93c-.07-.1-.15-.21-.26-.2a.25.25,0,0,0-.15.06,32.78,32.78,0,0,0-4.41,3.07" transform="translate(-37.33 -11.75)" fill="none" stroke="#f8feff" stroke-linecap="round" stroke-linejoin="round" stroke-width="1.88"></path><path d="M300,178.28a41.72,41.72,0,0,0-2.34,3.69,4.88,4.88,0,0,0-1.18-.89l-3-1.84" transform="translate(-37.33 -11.75)" fill="none" stroke="#f8feff" stroke-linecap="round" stroke-linejoin="round" stroke-width="1.88"></path><path d="M334.94,194.77a.83.83,0,0,1-.44,0c-.23,0-.37-.28-.51-.48a3.44,3.44,0,0,0-1.57-1.27.89.89,0,0,1-.44.79,7,7,0,0,0-3.42-2.88,1.89,1.89,0,0,0-.28,1.77,5.58,5.58,0,0,0,.91,1.63l1.55,2.14a4.28,4.28,0,0,0,1.05,1.15,4.09,4.09,0,0,0,3.21.19,25.4,25.4,0,0,0,10.75-5.56c.54-.48,1.11-1.11,1-1.82-.05-.27-3.52-.63-3.94-.62a2.2,2.2,0,0,0-1.94,1A14.32,14.32,0,0,1,334.94,194.77Z" transform="translate(-37.33 -11.75)" fill="#f38a6b"></path><circle cx="289.48" cy="136.81" r="0.75" fill="url(#linear-gradient-16)"></circle><circle cx="276.48" cy="145.7" r="0.75" fill="url(#linear-gradient-17)"></circle><circle cx="286.54" cy="138.21" r="0.75" fill="url(#linear-gradient-18)"></circle><circle cx="283.22" cy="137.89" r="0.75" fill="url(#linear-gradient-19)"></circle><circle cx="275.4" cy="151.4" r="1.06" fill="url(#linear-gradient-20)"></circle><circle cx="280.62" cy="143.58" r="1.06" fill="url(#linear-gradient-21)"></circle></svg>